<?xml version="1.0" standalone="no"?>
<!DOCTYPE svg PUBLIC "-//W3C//DTD SVG 1.1//EN" "http://www.w3.org/Graphics/SVG/1.1/DTD/svg11.dtd" >
<svg xmlns="http://www.w3.org/2000/svg">
<metadata>Generated by IcoMoon</metadata>
<defs>
<font id="id-icons" horiz-adv-x="512">
<font-face units-per-em="512" ascent="480" descent="-32" />
<missing-glyph horiz-adv-x="512" />
<glyph unicode="&#x20;" horiz-adv-x="256" d="" />
<glyph unicode="&#xe600;" glyph-name="add-selection" d="M234.667 85.333h42.667v106.666h106.666v42.667h-106.666v106.666h-42.666v-106.666h-106.666v-42.667h106.666zM384 469.333v-42.666h85.334v-85.333h42.666v128zM469.334 277.333h42.666v-128h-42.666v128zM469.334-0h-85.334v-42.666h128v128h-42.666zM192-0h128v-42.666h-128v42.666zM42.666 85.333h-42.666v-128h128v42.666h-85.334zM0 277.333h42.666v-128h-42.666v128zM42.666 426.667h85.334v42.666h-128v-128h42.666zM192 469.333h128v-42.666h-128v42.666z" />
<glyph unicode="&#xe601;" glyph-name="chevron-down" d="M256 114.005l-163.35 163.328 30.166 30.166 133.184-133.163 133.163 133.163 30.166-30.166z" />
<glyph unicode="&#xe602;" glyph-name="chevron-left" d="M159.254 213.333l163.328 163.328 30.166-30.166-133.162-133.163 133.162-133.163-30.166-30.166z" />
<glyph unicode="&#xe603;" glyph-name="chevron-right" d="M352.747 213.333l-163.328 163.328-30.166-30.166 133.162-133.163-133.162-133.163 30.166-30.166z" />
<glyph unicode="&#xe604;" glyph-name="chevron-up" d="M256 307.499l-163.35-163.328 30.166-30.166 133.184 133.163 133.163-133.163 30.166 30.166z" />
<glyph unicode="&#xe605;" glyph-name="close" d="M441.75 368.917l-30.166 30.166-155.584-155.584-155.584 155.584-30.166-30.166 155.584-155.584-155.584-155.584 30.166-30.166 155.584 155.584 155.584-155.584 30.166 30.166-155.584 155.584z" />
<glyph unicode="&#xe606;" glyph-name="cross" d="M406.635 318.699l-45.269 45.269-105.365-105.387-105.365 105.387-45.269-45.269 105.387-105.365-105.386-105.365 45.27-45.269 105.365 105.387 105.365-105.387 45.269 45.269-105.387 105.365z" />
<glyph unicode="&#xe607;" glyph-name="down" d="M389.163 182.080l-111.829-111.829v356.416h-42.666v-356.416l-111.829 111.829-30.166-30.166 163.328-163.328 163.328 163.328z" />
<glyph unicode="&#xe608;" glyph-name="drag" horiz-adv-x="341" d="M85.335 341.333h170.667v-42.667h-170.667v42.667zM85.335 234.667h170.667v-42.667h-170.667v42.667zM85.335 128h170.667v-42.666h-170.667v42.666z" />
<glyph unicode="&#xe609;" glyph-name="edit" d="M378.154 400.533l-274.923-269.291-31.21-101.397 107.114 30.592 270.72 276.374-71.702 63.722zM162.197 88.896l-42.219-12.075 11.456 37.269 247.744 242.71 24.298-21.59-241.28-246.315zM192 64h213.333v-42.666h-213.333v42.666z" />
<glyph unicode="&#xe60a;" glyph-name="hidden" d="M111.573 129.28c-9.814 7.253-18.346 15.147-25.6 23.040s-13.653 15.786-18.987 23.253c-5.334 7.466-9.6 14.72-13.014 21.12s-5.974 12.16-7.894 16.64c1.28 3.2 2.986 7.040 5.12 11.094s4.48 8.96 7.466 13.867c2.986 4.906 6.4 10.24 10.24 15.573s8.32 10.88 13.227 16.64c10.454 11.733 21.76 21.973 34.346 30.933s26.026 16.214 40.534 22.187c14.506 5.973 30.080 10.453 46.507 13.44 16.64 2.774 34.133 4.267 52.48 4.267 5.76 0 11.093-0.214 16.427-0.427s10.666-0.64 15.574-1.28c5.12-0.64 10.026-1.28 14.933-2.134s9.6-1.707 14.080-2.774l34.986 34.986c-6.827 2.134-13.866 4.267-21.334 5.974s-15.147 3.2-23.040 4.48c-7.894 1.28-16.214 2.133-24.747 2.774-8.747 0.64-17.707 1.066-26.88 1.066-52.053 0-94.080-10.666-127.786-26.666s-59.094-37.334-77.867-58.667-31.146-42.666-38.827-58.666-10.454-26.667-10.454-26.667 1.067-4.053 3.84-10.88c2.56-6.827 6.827-16.426 13.013-27.733s14.080-23.894 24.534-37.12 23.254-26.454 38.827-38.827l23.040 23.040 7.254 7.466zM430.507 327.68l49.493 49.493-29.866 29.867-175.786-175.786-18.346-17.92-182.613-182.613 29.867-29.866 56.32 56.32c6.827-2.134 13.867-4.267 21.333-5.974s15.147-3.2 23.040-4.48c7.893-1.28 16.214-2.134 24.746-2.774 9.173-0.853 18.133-1.28 27.306-1.28 52.053 0 94.080 10.666 127.786 26.666s59.094 37.334 77.867 58.666c18.774 21.334 31.147 42.666 38.827 58.666 7.466 16 10.454 26.666 10.454 26.666s-1.067 4.053-3.84 10.88c-2.56 6.827-6.827 16.427-13.014 27.52s-14.293 23.893-24.747 37.12-23.253 26.24-38.827 38.827zM305.067 202.027c-1.067-4.693-2.774-9.173-5.12-13.226s-5.12-7.894-8.32-11.094c-3.2-3.2-7.040-6.187-11.094-8.32s-8.534-4.053-13.226-5.12l37.76 37.76zM429.654 156.16c-10.454-11.733-21.76-21.974-34.346-30.933-12.373-8.747-26.026-16.214-40.534-22.187s-30.080-10.454-46.507-13.44-33.92-4.267-52.267-4.267c-5.76 0-11.094 0.214-16.64 0.426s-10.666 0.64-15.573 1.28-10.026 1.28-14.934 2.134c-4.906 0.853-9.6 1.707-14.080 2.774l33.28 33.28c2.133-0.64 4.48-1.28 6.827-1.92s4.48-1.067 6.827-1.493c2.346-0.426 4.694-0.853 7.040-1.067s4.906-0.426 7.254-0.426c12.8 0 25.173 2.56 36.267 7.253s21.12 11.52 29.654 20.053 15.147 18.56 20.053 29.654c4.694 11.094 7.253 23.466 7.253 36.267 0 2.56-0.214 4.906-0.426 7.254s-0.64 4.694-1.067 7.040-0.853 4.694-1.493 6.827-1.28 4.48-1.92 6.827l55.466 55.466c9.813-7.253 18.346-15.146 25.6-22.827 7.466-7.893 13.654-15.573 18.986-23.253 5.334-7.466 9.6-14.72 13.014-21.12s5.974-12.16 7.894-16.64c-1.28-3.2-2.986-7.040-5.12-11.094-2.134-4.267-4.48-8.96-7.466-13.866s-6.4-10.24-10.24-15.574c-3.413-5.12-7.894-10.88-12.8-16.426zM162.987 213.333c0-2.56 0.214-4.906 0.427-7.253s0.64-4.694 1.066-7.040c0.427-2.346 0.853-4.693 1.494-6.827 0.64-2.346 1.28-4.48 1.92-6.827l39.254 39.254c1.066 4.694 2.774 9.173 5.12 13.226s5.12 7.893 8.32 11.094 7.040 6.186 11.094 8.32c4.053 2.346 8.534 4.054 13.226 5.12l39.253 39.253c-2.346 0.64-4.693 1.494-6.827 1.92-2.346 0.64-4.48 1.066-6.827 1.493s-4.693 0.854-7.040 1.067c-2.56 0.214-4.906 0.214-7.466 0.214-12.8 0-25.173-2.56-36.267-7.253s-21.12-11.52-29.654-19.84-15.147-18.56-19.84-29.654c-4.694-11.094-7.254-23.466-7.254-36.267z" />
<glyph unicode="&#xe60b;" glyph-name="filter" d="M448 384v-30.293l-170.667-170.666v-109.654l-42.666-14.293v123.947l-170.667 170.667v30.293h384zM490.666 426.667h-469.334v-90.666l170.667-170.667v-165.333l128 42.666v122.666l170.667 170.667v90.666z" />
<glyph unicode="&#xe60c;" glyph-name="layers" d="M512 298.667l-256 128-256-128 256-128 256 128zM256 378.965l160.597-80.298-160.597-80.298-160.597 80.298 160.597 80.298zM256 133.035l-208.298 104.15-47.702-23.851 256-128 256 128-47.702 23.851zM256 47.701l-208.298 104.149-47.702-23.851 256-128 256 128-47.702 23.851z" />
<glyph unicode="&#xe60d;" glyph-name="left" d="M469.334 234.667h-356.416l111.829 111.829-30.166 30.166-163.328-163.328 163.328-163.328 30.166 30.166-111.829 111.829h356.416z" />
<glyph unicode="&#xe60e;" glyph-name="locked" d="M362.666 256v46.954c0 58.346-47.466 105.813-107.52 105.813-58.346 0-105.814-47.466-105.814-105.813v-46.954h-64v-234.667h341.334v234.667h-64zM192 302.955c0 34.816 28.331 63.147 64.853 63.147 34.816 0 63.147-28.33 63.147-63.147v-46.954h-128v46.954zM384 64h-256v149.334h256v-149.333z" />
<glyph unicode="&#xe60f;" glyph-name="right" d="M317.418 376.661l-30.166-30.166 111.829-111.829h-356.416v-42.667h356.416l-111.829-111.829 30.166-30.166 163.328 163.328z" />
<glyph unicode="&#xe610;" glyph-name="tick" d="M204.267 54.784l-139.882 139.904 45.248 45.248 94.635-94.635 199.766 199.766 45.269-45.248z" />
<glyph unicode="&#xe611;" glyph-name="trash" d="M490.666 384h-128v85.334h-213.333v-85.334h-128v-42.666h42.666v-384h384v384h42.666v42.666zM192 426.667h128v-42.666h-128v42.666zM405.334-0h-298.666v341.334h298.666v-341.334zM149.333 298.667h42.667v-256h-42.666v256zM234.667 298.667h42.667v-256h-42.666v256zM320 298.667h42.666v-256h-42.666v256z" />
<glyph unicode="&#xe612;" glyph-name="unlocked" d="M415.253 408.768c-52.522 0-95.253-47.466-95.253-105.813v-46.955h-234.667v-234.667h341.334v234.667h-64v46.954c0 34.816 23.574 63.147 54.080 63.147 28.992 0 52.587-28.33 52.587-63.147v-46.954h42.666v46.954c0 58.346-42.731 105.813-96.746 105.813zM384 213.333v-149.333h-256v149.334h256z" />
<glyph unicode="&#xe613;" glyph-name="up" d="M419.328 274.752l-163.328 163.328-163.328-163.328 30.166-30.166 111.829 111.83v-356.416h42.666v356.416l111.829-111.83z" />
<glyph unicode="&#xe614;" glyph-name="visible" d="M256 341.333c36.139 0 66.454-5.91 91.818-15.296s45.781-22.25 62.101-36.16c16.32-13.909 28.565-28.864 37.568-42.41s14.784-25.707 18.197-34.048c-1.322-3.2-3.008-6.976-5.077-11.178-2.091-4.224-4.565-8.875-7.51-13.824s-6.315-10.219-10.219-15.616-8.277-10.986-13.205-16.555c-10.389-11.755-21.824-22.080-34.283-30.933-12.48-8.853-25.962-16.235-40.49-22.166-14.507-5.93-30.016-10.368-46.528-13.354s-33.942-4.459-52.374-4.459c-36.138 0-66.453 5.909-91.819 15.296s-45.781 22.25-62.102 36.16c-16.32 13.909-28.566 28.864-37.568 42.411s-14.784 25.707-18.198 34.048c1.322 3.2 3.008 6.976 5.078 11.179 2.090 4.224 4.566 8.875 7.51 13.824 2.922 4.95 6.314 10.219 10.198 15.616 3.882 5.419 8.278 10.987 13.206 16.554 10.389 11.755 21.824 22.080 34.282 30.933 12.48 8.854 25.984 16.256 40.491 22.166s30.016 10.389 46.507 13.354 33.984 4.459 52.416 4.459zM256 384c-52.138 0-94.144-10.666-127.829-26.666s-59.029-37.334-77.867-58.667-31.146-42.666-38.742-58.666-10.496-26.667-10.496-26.667 2.901-10.666 10.496-26.666 19.925-37.334 38.742-58.666 44.181-42.666 77.845-58.666 75.712-26.666 127.851-26.666 94.144 10.666 127.829 26.666 59.029 37.334 77.867 58.666c18.837 21.334 31.147 42.666 38.741 58.666s10.496 26.666 10.496 26.666-2.901 10.667-10.496 26.667-19.925 37.333-38.741 58.666c-18.837 21.334-44.182 42.667-77.846 58.667s-75.712 26.666-127.851 26.666v0 0 0 0zM256 263.787c6.954 0 13.589-1.408 19.627-3.968s11.478-6.251 16.043-10.816c4.565-4.566 8.277-10.006 10.816-16.042s3.968-12.672 3.968-19.626-1.408-13.59-3.968-19.627-6.25-11.478-10.816-16.043c-4.565-4.565-10.005-8.277-16.043-10.816s-12.672-3.968-19.627-3.968-13.589 1.408-19.626 3.968-11.477 6.25-16.042 10.816c-4.565 4.565-8.278 10.005-10.816 16.043s-3.968 12.672-3.968 19.627 1.408 13.589 3.968 19.626 6.25 11.477 10.816 16.042c4.565 4.566 10.006 8.278 16.042 10.816s12.672 3.968 19.626 3.968zM256 306.453c-12.864 0-25.109-2.603-36.245-7.317s-21.184-11.52-29.611-19.947c-8.427-8.427-15.254-18.454-19.968-29.611-4.694-11.136-7.296-23.381-7.296-36.246s2.602-25.11 7.317-36.245 11.542-21.184 19.968-29.611c8.427-8.426 18.453-15.253 29.611-19.968 11.136-4.714 23.381-7.317 36.245-7.317s25.11 2.603 36.245 7.317c11.136 4.714 21.184 11.541 29.611 19.968s15.253 18.454 19.968 29.611c4.714 11.136 7.317 23.382 7.317 36.245s-2.603 25.11-7.317 36.246c-4.714 11.136-11.541 21.184-19.968 29.611s-18.454 15.253-29.611 19.968-23.402 7.296-36.267 7.296v0 0 0 0z" />
<glyph unicode="&#xe615;" glyph-name="table" d="M0 426.667v-426.666h512v426.666h-512zM192 256h128v-85.334h-128v85.334zM149.333 170.667h-106.666v85.334h106.666v-85.334zM192 298.667v85.333h128v-85.333h-128zM149.333 384v-85.333h-106.666v85.333h106.666zM42.666 42.667v85.334h106.666v-85.334h-106.666zM192 42.667v85.334h128v-85.334h-128zM469.334 42.667h-106.666v85.334h106.666v-85.334zM469.334 170.667h-106.666v85.334h106.666v-85.334zM362.666 298.667v85.333h106.666v-85.333h-106.666z" />
<glyph unicode="&#xe616;" glyph-name="bolt" d="M101.334-42.667l149.76 234.666-115.2 42.667 218.88 234.667-80.64-192 115.2-42.667z" />
<glyph unicode="&#xe617;" glyph-name="folder" d="M448 64h-384v320h162.56l21.334-42.666h200.106v-277.334zM106.666 106.667h298.666v192h-183.893l-21.333 42.667h-93.44v-234.667z" />
<glyph unicode="&#xe618;" glyph-name="clear" d="M256 405.333c-106.026 0-192-85.974-192-192s85.974-192 192-192 192 85.974 192 192c0 106.026-85.974 192-192 192zM256 362.667c33.493 0 64.427-11.307 89.173-29.866l-208.64-208.64c-18.56 24.747-29.867 55.68-29.867 89.173 0 82.347 66.987 149.334 149.333 149.334zM256 64c-33.493 0-64.427 11.306-89.173 29.866l208.64 208.64c18.56-24.746 29.866-55.68 29.866-89.173 0-82.346-66.986-149.334-149.333-149.334z" />
<glyph unicode="&#xe619;" glyph-name="star" d="M374.827 37.547l-118.827 60.587-118.827-60.587 20.906 131.84-94.507 94.294 131.84 20.906 60.587 118.827 60.587-118.827 131.84-20.906-94.293-94.294 20.693-131.84zM153.173 234.667l50.56-50.56-11.094-70.4 63.36 32.426 63.574-32.426-11.094 70.4 50.346 50.56-70.613 11.094-32.214 63.573-32.427-63.573-70.4-11.094z" />
<glyph unicode="&#xe61a;" glyph-name="share" d="M320 277.333v-42.667h42.666v-170.667h-213.333v170.667h42.667v42.666h-85.334v-256h298.666v256zM234.667 353.92v-204.587h42.667v204.587l48.853-49.067 30.293 30.293-100.48 100.267-100.48-100.267 30.293-30.293z" />
<glyph unicode="&#xe61b;" glyph-name="report" d="M320 405.333h-234.667v-384h341.334v277.334l-106.666 106.667zM384 64h-256v298.667h149.333v-106.667h106.666v-192zM320 298.667v45.014l45.866-45.014h-45.866zM234.667 234.667h42.667v-128h-42.666v128zM170.667 192h42.667v-85.334h-42.666v85.334zM298.666 213.333h42.666v-106.666h-42.666v106.666z" />
<glyph unicode="&#xe61c;" glyph-name="plus" d="M405.334 234.667h-128v128h-42.666v-128h-128v-42.667h128v-128h42.666v128h128z" />
<glyph unicode="&#xe61d;" glyph-name="minus" d="M106.666 234.667h298.666v-42.667h-298.666v42.667z" />
<glyph unicode="&#xe61e;" glyph-name="add" d="M256 362.667c82.346 0 149.333-66.986 149.333-149.334s-66.986-149.333-149.333-149.333-149.333 66.986-149.333 149.334 66.987 149.333 149.333 149.333zM256 405.333c-106.026 0-192-85.974-192-192s85.974-192 192-192 192 85.974 192 192-85.974 192-192 192v0zM234.667 320h42.667v-213.334h-42.666v213.334zM149.333 234.667h213.333v-42.667h-213.333v42.667z" />
<glyph unicode="&#xe61f;" glyph-name="remove" d="M256 362.667c82.346 0 149.333-66.986 149.333-149.334s-66.986-149.333-149.333-149.333-149.333 66.986-149.333 149.334 66.987 149.333 149.333 149.333zM256 405.333c-106.026 0-192-85.974-192-192s85.974-192 192-192 192 85.974 192 192-85.974 192-192 192v0zM149.333 234.667h213.333v-42.667h-213.333v42.667z" />
<glyph unicode="&#xe620;" glyph-name="checkbox-checked" d="M225.707 54.827l-139.946 139.946 45.227 45.227 94.72-94.72 286.293 286.507v37.547h-512v-512h512v383.786z" />
<glyph unicode="&#xe621;" glyph-name="checkbox" d="M469.334 426.667v-426.666h-426.666v426.666h426.666zM512 469.333h-512v-512h512v512z" />
<glyph unicode="&#xe622;" glyph-name="cat-default" d="M256 431.36c-72.96 0-201.143-14.080-201.143-66.743v-290.377c0-52.663 128.183-66.743 201.143-66.743s201.143 14.080 201.143 66.743v290.377c0 52.663-128.183 66.743-201.143 66.743zM256 394.789c96.914 0 149.76-20.115 159.086-30.172-9.509-10.057-62.171-30.171-159.086-30.171s-149.577 20.114-159.085 30.171c9.326 10.057 62.172 30.172 159.085 30.172zM91.428 323.292c54.857-19.2 114.285-25.417 162.377-25.417s119.040 6.217 161.097 25.417l0.548-54.125c-5.668-9.509-60.526-31.452-162.012-31.452-102.4 0-162.012 22.491-162.012 30.171v55.406zM91.428 226.377c54.857-19.2 114.285-25.417 162.377-25.417s119.040 6.217 161.28 25.417l0.548-55.223c-5.303-9.325-60.16-31.635-162.195-31.635-102.4 0-162.012 22.491-162.012 30.171v56.685zM253.805 44.069c-102.4 0-162.377 22.491-162.377 30.171v54.125c54.857-19.2 114.286-25.417 162.377-25.417s119.223 6.217 161.463 25.417l-0.548-52.663c-4.937-9.143-58.514-31.635-160.915-31.635z" />
<glyph unicode="&#xe623;" glyph-name="cat-large-area-forecasts" d="M420.572 54.857v201.143h-109.714v-201.143h-36.572v75.885l-91.428 72.777-91.428-72.777v-75.885h-36.572v-36.572h73.143v94.903l54.857 43.52 54.857-43.52v-94.903h109.715v201.143h36.572v-201.143h73.143v36.572zM237.714 374.126v-172.983h36.572v172.983l57.966-57.966 25.783 25.966-102.034 102.034-102.034-102.034 25.783-25.966z" />
<glyph unicode="&#xe624;" glyph-name="cat-population-forecasts" d="M237.714 374.126v-136.411h36.572v136.411l57.966-57.966 25.783 25.966-102.034 102.034-102.034-102.034 25.783-25.966zM109.715 146.286h-36.572v-73.143h36.572v-73.143h36.572v73.143h36.572v73.143h-36.572zM109.715 201.143h36.572v-36.572h-36.572v36.572zM237.714 146.286h-36.572v-73.143h36.572v-73.143h36.572v73.143h36.572v73.143h-36.572zM237.714 201.143h36.572v-36.572h-36.572v36.572zM402.286 146.286h-73.143v-73.143h36.572v-73.143h36.572v73.143h36.572v73.143zM365.714 201.143h36.572v-36.572h-36.572v36.572z" />
<glyph unicode="&#xe625;" glyph-name="catpop" d="M182.857 146.286h36.571v-146.286h-36.572v146.286zM109.715 146.286h36.572v-146.286h-36.572v146.286zM73.143 329.143v-164.571h36.572v128h109.715v-128h36.571v164.571h-86.857zM224 384c0 30.171-24.685 54.857-54.857 54.857s-54.857-24.685-54.857-54.857 24.685-54.857 54.857-54.857 54.857 24.685 54.857 54.857zM169.143 365.714c-10.057 0-18.285 8.229-18.285 18.286s8.228 18.286 18.286 18.286 18.286-8.228 18.286-18.286-8.228-18.286-18.286-18.286zM384 109.714h36.572v-109.714h-36.572v109.714zM310.857 109.714h36.572v-109.714h-36.572v109.714zM467.748 128l-91.612 201.691c27.428 2.925 49.005 25.966 49.005 54.309 0 30.171-24.685 54.857-54.857 54.857s-54.857-24.685-54.857-54.857c0-28.343 21.577-51.383 49.188-54.309l-91.794-201.691h194.925zM329.509 164.572l40.777 89.6 40.777-89.6h-81.555zM352 384c0 10.057 8.228 18.285 18.286 18.285s18.286-8.228 18.286-18.285-8.228-18.286-18.286-18.286-18.286 8.228-18.286 18.286z" />
<glyph unicode="&#xe626;" glyph-name="cat-community" d="M256 292.572c-40.411 0-73.143 32.732-73.143 73.143s32.732 73.143 73.143 73.143c40.411 0 73.143-32.731 73.143-73.143s-32.731-73.143-73.143-73.143zM256 402.286c-20.114 0-36.572-16.457-36.572-36.572s16.457-36.571 36.572-36.571c20.115 0 36.572 16.457 36.572 36.571s-16.457 36.572-36.572 36.572zM395.52 189.44c-32 0-59.977 20.48-69.668 51.017-12.252 38.4 9.143 79.726 47.543 91.977 7.315 2.377 14.628 3.475 22.308 3.475 32 0 59.977-20.48 69.668-51.017 12.252-38.4-9.143-79.726-47.543-91.977-7.315-2.377-14.812-3.474-22.308-3.474zM395.52 299.154c-3.84 0-7.497-0.548-11.154-1.829-19.2-6.034-29.805-26.697-23.772-45.897 6.034-18.834 26.88-29.805 45.897-23.772 19.2 6.217 29.805 26.697 23.772 45.897-4.755 15.36-18.651 25.6-34.743 25.6zM339.748 25.234c-23.589 0-45.897 11.52-59.611 30.72-11.337 15.909-15.726 35.291-12.435 54.491s13.897 36.023 29.805 47.36c12.435 8.777 27.063 13.531 42.24 13.531 23.589 0 45.897-11.52 59.611-30.72 11.337-15.909 15.726-35.291 12.435-54.491s-13.897-36.023-29.805-47.36c-12.435-8.96-27.063-13.531-42.24-13.531zM339.748 134.949c-7.68 0-14.995-2.377-21.212-6.765-8.046-5.668-13.166-14.080-14.812-23.772s0.548-19.383 6.217-27.245c11.154-15.909 35.108-19.931 51.017-8.594 8.046 5.668 13.166 14.080 14.812 23.772s-0.548 19.383-6.217 27.245c-6.765 9.509-18.103 15.36-29.805 15.36zM166.217 28.526c-15.909 0-31.085 5.12-43.886 14.628-32.183 24.32-38.766 70.217-14.445 102.4 13.897 18.469 35.291 29.257 58.515 29.257 15.909 0 31.085-5.12 43.886-14.628 32.183-24.32 38.766-70.217 14.446-102.4-13.897-18.651-35.291-29.257-58.514-29.257zM166.217 138.24c-11.703 0-22.309-5.303-29.257-14.628-12.069-16.091-8.777-39.132 7.315-51.2 15.726-11.885 39.497-8.411 51.2 7.315 12.069 16.091 8.777 39.132-7.315 51.2-6.4 4.755-13.897 7.315-21.943 7.315zM116.663 194.743c-8.228 0-16.275 1.463-24.137 4.023-38.035 13.349-58.148 55.040-44.983 93.257 10.24 29.257 38.035 49.005 69.12 49.005 8.228 0 16.274-1.463 24.137-4.023 38.035-13.349 58.149-55.040 44.983-93.257-10.24-29.257-38.035-49.005-69.12-49.005zM116.663 304.457c-15.543 0-29.44-9.875-34.56-24.503-6.583-19.017 3.475-39.863 22.492-46.629 18.835-6.583 40.045 3.84 46.629 22.492 6.583 19.017-3.475 39.863-22.492 46.628-3.84 1.28-8.046 2.012-12.069 2.012z" />
<glyph unicode="&#xe627;" glyph-name="cat-education" d="M256 384l-219.429-109.715 109.715-54.857v-61.805c0-37.12 47.177-65.097 109.714-65.097 63.635 0 109.714 26.697 109.714 63.269v63.635l73.143 36.572v-91.428h36.572v109.714l-219.428 109.714zM329.143 155.794c0-9.143-25.783-26.697-73.143-26.697-45.349 0-73.143 18.469-73.143 28.526v43.52l73.143-36.572 73.143 36.572v-45.349zM256 205.532l-137.691 68.755 137.691 68.755 137.692-68.755-137.692-68.755z" />
<glyph unicode="&#xe628;" glyph-name="cat-housing" d="M420.572 36.572h-146.286v128h-36.572v-128h-146.286v232.594l164.572 146.469 164.572-146.469v-232.594zM310.857 73.143h73.143v179.565l-128 113.92-128-113.92v-179.565h73.143v128h109.715v-128z" />
<glyph unicode="&#xe629;" glyph-name="cat-transport-comms" d="M36.572 329.143v-237.714h36.572v-18.286h36.572v18.286h73.143v-18.286h36.572v18.286h36.572v292.572h-219.429v-54.857zM73.143 347.429h146.286v-18.286h-146.286v18.286zM73.143 292.572h146.286v-54.857h-146.286v54.857zM73.143 201.143h146.286v-73.143h-146.286v73.143zM91.428 182.857h36.572v-36.572h-36.572v36.572zM164.571 182.857h36.571v-36.572h-36.572v36.572zM463.543 202.057l12.983 12.983-70.766 70.765 56.137 56.137-25.783 25.783-56.137-56.137-73.509 73.508-12.983-12.983c-34.377-34.377-36.572-109.349 12.069-157.988 10.057-10.057 21.76-18.103 34.377-24.32l-41.325-116.663h38.765l20.846 58.88 21.029-58.88h38.765l-37.12 104.777c4.937-0.548 10.057-0.914 14.995-0.914 27.063-0.183 51.748 9.143 67.657 25.051zM331.52 240.092c-26.332 26.332-32 65.097-22.125 90.332l112.457-112.457c-7.68-2.925-16.457-4.572-26.149-4.572-23.954 0-47.36 9.875-64.183 26.697z" />
<glyph unicode="&#xe62a;" glyph-name="cat-work-income" d="M347.428 274.286c-52.846 0-109.714 17.189-109.714 54.857s56.868 54.857 109.714 54.857 109.714-17.188 109.714-54.857-56.868-54.857-109.714-54.857zM274.834 329.143c4.755-6.035 29.805-18.286 72.594-18.286s68.023 12.251 72.594 18.286c-4.572 6.034-29.623 18.286-72.594 18.286s-68.023-12.252-72.594-18.286zM347.428 91.429c-43.337 0-89.417 11.52-104.594 36.572-3.292-5.486-5.12-11.52-5.12-18.286 0-37.668 56.868-54.857 109.714-54.857s109.714 17.188 109.714 54.857c0 6.765-1.829 12.8-5.12 18.286-15.177-25.051-61.257-36.572-104.594-36.572zM347.428 146.286c-43.337 0-89.417 11.52-104.594 36.572-3.292-5.486-5.12-11.52-5.12-18.286 0-37.668 56.868-54.857 109.714-54.857s109.714 17.188 109.714 54.857c0 6.765-1.829 12.8-5.12 18.286-15.177-25.051-61.257-36.572-104.594-36.572zM347.428 201.143c-43.337 0-89.417 11.52-104.594 36.572-3.292-5.486-5.12-11.52-5.12-18.286 0-37.668 56.868-54.857 109.714-54.857s109.714 17.188 109.714 54.857c0 6.766-1.829 12.8-5.12 18.286-15.177-25.051-61.257-36.572-104.594-36.572zM347.428 256c-43.337 0-89.417 11.52-104.594 36.572-3.292-5.486-5.12-11.52-5.12-18.286 0-37.668 56.868-54.857 109.714-54.857s109.714 17.189 109.714 54.857c0 6.765-1.829 12.8-5.12 18.286-15.177-25.052-61.257-36.572-104.594-36.572zM54.857 256c0-37.668 56.868-54.857 109.715-54.857 18.651 0 37.851 2.195 54.857 6.583v38.4c-12.434-4.571-30.72-8.411-54.857-8.411-42.971 0-68.023 12.252-72.594 18.286 4.754 6.034 29.805 18.286 72.594 18.286 24.137 0 42.423-3.84 54.857-8.411v38.4c-17.006 4.389-36.206 6.583-54.857 6.583-52.846 0-109.715-17.189-109.715-54.857zM59.977 164.572c-3.291-5.486-5.12-11.52-5.12-18.286 0-37.668 56.868-54.857 109.715-54.857 18.651 0 37.851 2.195 54.857 6.583v36.755c-17.006-4.389-36.206-6.765-54.857-6.765-43.337 0-89.417 11.52-104.594 36.572zM59.977 219.429c-3.291-5.486-5.12-11.52-5.12-18.286 0-37.668 56.868-54.857 109.715-54.857 18.651 0 37.851 2.195 54.857 6.583v36.755c-17.006-4.389-36.206-6.765-54.857-6.765-43.337 0-89.417 11.52-104.594 36.572z" />
<glyph unicode="&#xe62b;" glyph-name="search" d="M441.813 57.813l-109.014 109.014c18.56 24.747 29.866 55.68 29.866 89.174 0 82.346-66.986 149.333-149.333 149.333s-149.333-66.986-149.333-149.333c0-82.347 66.987-149.334 149.333-149.334 33.494 0 64.427 11.307 89.174 29.866l109.014-109.014 30.293 30.293zM213.333 149.333c-58.88 0-106.666 47.786-106.666 106.667s47.787 106.667 106.666 106.667 106.667-47.787 106.667-106.667-47.786-106.667-106.666-106.667z" />
<glyph unicode="&#xe62c;" glyph-name="info" d="M256 362.667c82.346 0 149.333-66.986 149.333-149.334s-66.986-149.333-149.333-149.333-149.333 66.986-149.333 149.334 66.987 149.333 149.333 149.333zM256 405.333c-106.026 0-192-85.974-192-192s85.974-192 192-192 192 85.974 192 192-85.974 192-192 192v0zM234.667 320h42.667v-42.666h-42.666v42.666zM277.334 106.667h-42.666v106.666h-21.334v42.667h64z" />
<glyph unicode="&#xe62d;" glyph-name="add-remove" d="M128 234.667h42.666v64h64v42.667h-64v64h-42.666v-64h-64v-42.667h64zM277.334 128h170.666v-42.666h-170.667v42.666zM70.302 57.809l341.369 341.369 30.169-30.17-341.369-341.369-30.169 30.169z" />
<glyph unicode="&#xe62e;" glyph-name="locate" d="M256 405.333c-106.026 0-192-85.974-192-192s85.974-192 192-192 192 85.974 192 192c0 106.026-85.974 192-192 192zM277.334 65.707v83.627h-42.666v-83.626c-65.28 9.387-116.906 61.014-126.293 126.293h83.626v42.667h-83.626c9.386 65.28 61.013 116.907 126.293 126.293v-83.626h42.666v83.626c65.28-9.386 116.906-61.013 126.293-126.293h-83.627v-42.667h83.626c-9.387-65.28-61.014-116.906-126.293-126.293z" />
<glyph unicode="&#xe62f;" glyph-name="pin" d="M203.52 211.627l-121.814-173.44 173.44 122.026-51.626 51.413zM359.466 366.507l49.707-49.707-8.747-4.267-6.187-8.96-65.067-91.947-10.454-14.933 3.413-17.92 8.106-42.454-6.187-6.187-151.040 151.040 6.186 6.187 60.374-11.52 14.934 10.454 91.947 65.066 8.96 6.186 4.053 8.96zM347.307 438.827l-25.813-52.694-91.947-65.067-64.64 12.374-52.267-52.267 211.2-211.2 52.267 52.267-12.373 64.64 65.067 91.947 52.693 25.814-134.187 134.186z" />
<glyph unicode="&#xe630;" glyph-name="un-pin" d="M292.906 175.147h-72.746l36.48-208.853 36.267 208.853zM291.2 394.667l-3.2-9.173 1.92-10.667 18.986-110.933 2.986-17.92 15.147-10.24 35.627-24.32v-8.747h-213.333v8.747l50.987 34.56 2.987 17.92 18.987 110.933 1.92 10.667-3.413 9.173h70.4zM350.72 437.333h-189.44l18.987-55.466-18.987-110.933-54.614-36.907v-74.027h298.666v74.027l-54.613 36.907-18.986 110.933 18.986 55.466z" />
<glyph unicode="&#xe631;" glyph-name="filter-remove" d="M362.666 362.667c-70.4 0-128-57.6-128-128s57.6-128 128-128 128 57.6 128 128-57.6 128-128 128zM426.666 213.333h-128v42.667h128v-42.667zM21.334 426.667v-89.6l170.666-170.666v-166.4l128 42.666v123.733l46.933 46.934h-59.733l-29.866-29.867v-110.933l-42.666-12.8v123.733l-170.667 170.667v29.867h384v-29.867l-98.134-98.133h59.733l81.067 81.067v89.6z" />
<glyph unicode="&#xe632;" glyph-name="histogram" d="M106.666 170.667h42.666v-85.334h-42.666v85.334zM192 213.333h42.666v-128h-42.666v128zM277.334 256h42.666v-170.667h-42.666v170.667zM362.666 298.667h42.666v-213.334h-42.666v213.334z" />
<glyph unicode="&#xe633;" glyph-name="add-folder" d="M247.466 341.333l-21.334 42.666h-162.133v-320h192v42.666h-149.333v234.667h93.867l21.333-42.666h183.466v-42.667h42.666v85.334zM341.334 64h42.666v64h64v42.666h-64v64h-42.666v-64h-64v-42.666h64z" />
<glyph unicode="&#xe634;" glyph-name="saved-view" d="M362.666 362.667v-262.4l-83.2 55.466-23.466 14.933-23.466-14.933-83.2-55.466v262.4h213.334zM405.334 405.333h-298.666v-384l149.333 98.134 149.333-98.134v384z" />
<glyph unicode="&#xe635;" glyph-name="options" d="M272.64 405.333l5.334-23.254 5.546-20.267 19.84-6.613c6.613-2.134 13.226-5.12 20.053-8.534l18.986-9.6 19.2 9.6 21.974 11.093 16.853-16.853-11.094-21.974-9.6-19.2 9.6-19.2c3.413-6.827 6.187-13.654 8.534-20.266l6.613-20.267 20.267-6.827 23.253-7.893v-23.894l-23.253-7.68-20.267-6.827-6.613-20.267c-2.134-6.613-5.12-13.44-8.534-20.267l-9.6-19.2 9.6-19.2 11.094-21.974-16.853-16.853-21.974 11.094-19.2 9.6-19.2-9.6c-6.827-3.413-13.654-6.187-20.267-8.534l-20.267-6.613-6.827-20.267-7.894-23.466h-23.893l-7.68 23.253-6.827 20.267-20.267 6.613c-6.613 2.134-13.44 5.12-20.267 8.534l-19.2 9.6-19.2-9.6-21.974-11.094-16.853 16.853 11.094 21.974 9.6 19.2-9.6 19.2c-3.413 6.827-6.186 13.654-8.534 20.267l-6.614 20.267-43.733 14.72v23.894l23.253 7.68 20.267 6.827 6.614 20.267c2.133 6.613 5.12 13.44 8.534 20.267l9.6 19.2-9.6 19.2-10.88 21.974 16.853 16.853 21.974-11.094 19.2-9.6 19.2 9.6c6.827 3.413 13.654 6.186 20.267 8.534l20.267 6.613 6.827 20.267 7.68 23.466h33.28zM298.666 448h-85.334l-17.494-52.48c-8.96-2.987-17.707-6.613-26.026-10.88l-49.493 24.747-60.373-60.374 24.747-49.494c-4.266-8.32-7.894-17.066-10.88-26.026l-52.48-17.494v-85.334l52.48-17.493c2.987-8.96 6.614-17.707 10.88-26.026l-24.746-49.493 60.374-60.373 49.494 24.747c8.32-4.267 17.066-7.894 26.026-10.88l17.494-52.48h85.333l17.493 52.48c8.96 2.986 17.707 6.613 26.026 10.88l49.493-24.747 60.373 60.373-24.747 49.493c4.267 8.32 7.894 17.067 10.88 26.026l52.48 17.493v85.334l-52.48 17.494c-2.986 8.96-6.613 17.707-10.88 26.026l24.747 49.493-60.373 60.374-49.493-24.747c-8.32 4.267-17.067 7.893-26.026 10.88l-17.493 52.48zM256 256c23.466 0 42.666-19.2 42.666-42.667s-19.2-42.666-42.666-42.666-42.666 19.2-42.666 42.666 19.2 42.667 42.666 42.667zM256 298.667c-47.147 0-85.334-38.187-85.334-85.334s38.186-85.334 85.334-85.334 85.334 38.187 85.334 85.334-38.187 85.334-85.334 85.334v0z" />
<glyph unicode="&#xe636;" glyph-name="add-solid" d="M256 405.333c-106.026 0-192-85.974-192-192s85.974-192 192-192 192 85.974 192 192c0 106.026-85.974 192-192 192zM362.666 192h-85.334v-85.334h-42.666v85.334h-85.334v42.667h85.334v85.333h42.666v-85.333h85.334v-42.667z" />
<glyph unicode="&#xe637;" glyph-name="minus-solid" d="M256 405.333c-106.026 0-192-85.974-192-192s85.974-192 192-192 192 85.974 192 192c0 106.026-85.974 192-192 192zM362.666 192h-213.333v42.667h213.333v-42.667z" />
<glyph unicode="&#xe638;" glyph-name="cross-circle-solid" d="M256 405.333c-106.026 0-192-85.974-192-192s85.974-192 192-192 192 85.974 192 192c0 106.026-85.974 192-192 192zM346.454 152.96l-30.080-30.080-60.373 60.373-60.374-60.373-30.080 30.080 60.374 60.374-60.374 60.374 30.080 30.080 60.373-60.373 60.373 60.373 30.080-30.080-60.373-60.374 60.373-60.374z" />
<glyph unicode="&#xe900;" glyph-name="hamburger" d="M21.334 426.667h469.334v-85.333h-469.334v85.333zM21.334 256h469.334v-85.334h-469.334v85.334zM21.334 85.333h469.334v-85.334h-469.334v85.334z" />
<glyph unicode="&#xe901;" glyph-name="share-alt" d="M384 298.667c-25.553-0.067-48.439-11.43-63.937-29.358l-108.663 54.179c1.352 5.731 2.127 12.311 2.127 19.072 0 47.809-38.757 86.566-86.567 86.566s-86.567-38.757-86.567-86.566c0-47.81 38.757-86.567 86.567-86.567 25.889 0 49.122 11.364 64.986 29.376l108.654-54.191c-1.229-5.363-1.934-11.522-1.934-17.846s0.704-12.482 2.039-18.402l-108.675-53.733c-15.483 17.335-37.901 28.196-62.856 28.196-46.479 0-84.158-37.679-84.158-84.158s37.679-84.158 84.158-84.158c46.479 0 84.158 37.679 84.158 84.158 0 6.356-0.704 12.546-2.040 18.499l108.677 53.728c15.698-17.917 38.623-29.169 64.178-29.169 47.047 0 85.186 38.139 85.186 85.186s-38.139 85.186-85.186 85.186c-0.053 0-0.106 0-0.158 0zM128 298.667c-23.564 0-42.666 19.102-42.666 42.667s19.103 42.666 42.666 42.666c23.564 0 42.666-19.102 42.666-42.666-0.028-23.553-19.113-42.639-42.664-42.667zM128 42.667c-23.564 0-42.666 19.103-42.666 42.666s19.103 42.666 42.666 42.666c23.564 0 42.666-19.103 42.666-42.666-0.028-23.553-19.113-42.639-42.664-42.666zM384 170.667c-23.564 0-42.666 19.103-42.666 42.666s19.103 42.667 42.666 42.667c23.564 0 42.666-19.102 42.666-42.667-0.028-23.553-19.113-42.639-42.664-42.666z" />
<glyph unicode="&#xe902;" glyph-name="warning" d="M256 341.51l160.663-277.51h-321.327l160.663 277.511zM256 426.667l-234.667-405.334h469.334l-234.667 405.334zM234.667 256h42.667v-85.334h-42.666v85.334zM234.667 149.333h42.667v-42.666h-42.666v42.666z" />
<glyph unicode="&#xe903;" glyph-name="face-happy" d="M256 362.667c82.475 0 149.333-66.859 149.333-149.334s-66.859-149.333-149.333-149.333c-82.475 0-149.333 66.859-149.333 149.334s66.859 149.333 149.333 149.333zM256 405.333c-106.038 0-192-85.962-192-192s85.962-192 192-192c106.038 0 192 85.962 192 192s-85.962 192-192 192zM234.667 277.333h-42.667v-42.667h42.666zM320 277.333h-42.666v-42.667h42.666zM354.986 173.653l-39.68 15.786c-9.768-23.624-32.632-39.943-59.306-39.943s-49.538 16.32-59.151 39.519l-39.836-15.362c16.259-39.421 54.388-66.66 98.88-66.66s82.621 27.24 98.62 65.952z" />
<glyph unicode="&#xe904;" glyph-name="face-neutral" d="M256 362.667c82.475 0 149.333-66.859 149.333-149.334s-66.859-149.333-149.333-149.333c-82.475 0-149.333 66.859-149.333 149.334s66.859 149.333 149.333 149.333zM256 405.333c-106.038 0-192-85.962-192-192s85.962-192 192-192c106.038 0 192 85.962 192 192s-85.962 192-192 192zM234.667 277.333h-42.667v-42.667h42.666zM320 277.333h-42.666v-42.667h42.666zM320 170.667h-128v-42.666h128z" />
<glyph unicode="&#xe905;" glyph-name="face-sad" d="M234.667 234.667h-42.667v42.667h42.666zM320 277.333h-42.666v-42.667h42.666zM198.186 112.213c10.52 21.786 32.442 36.548 57.814 36.548s47.293-14.762 57.647-36.166l33.66 27.565c-19.011 31.089-52.772 51.522-91.307 51.522s-72.296-20.433-91.041-51.056zM256 362.667c-82.475 0-149.333-66.859-149.333-149.334s66.859-149.333 149.333-149.333c82.475 0 149.333 66.859 149.333 149.334s-66.859 149.333-149.333 149.333zM256 405.333c106.038 0 192-85.962 192-192s-85.962-192-192-192c-106.038 0-192 85.962-192 192s85.962 192 192 192z" />
<glyph unicode="&#xe906;" glyph-name="email" d="M42.666 320.001v-298.667h426.666v298.666zM256 155.094l-157.226 122.24h314.454zM167.68 170.667l-82.347-78.507v142.507zM201.814 144.214l54.4-42.666 52.267 40.747 82.134-78.293h-272.853zM342.613 169.174l84.053 65.494v-145.066z" />
<glyph unicode="&#xe907;" glyph-name="reset" d="M256 405.333c-60.178-0.038-113.875-27.756-149.053-71.11l-0.281 71.11h-42.666v-149.333h149.333v42.667h-79.36c27.381 38.463 71.808 63.249 122.025 63.249 82.475 0 149.333-66.859 149.333-149.334s-66.859-149.334-149.333-149.334c-82.475 0-149.333 66.859-149.333 149.333 0 0.264 0.001 0.527 0.002 0.791l-42.667-0.041c0-106.038 85.961-192 192-192s192 85.962 192 192c0 106.039-85.962 192-192 192z" />
<glyph unicode="&#xe908;" glyph-name="refresh" d="M405.334 405.333v-71.466c-35.482 43.655-89.177 71.32-149.334 71.32-105.988 0-191.917-85.878-192-191.846l42.666-0.008c0.423 82.154 67.119 148.589 149.332 148.589 50.219 0 94.648-24.788 121.719-62.797l-79.050-0.458v-42.666h149.334v149.333zM256 64c-50.34 0.183-94.788 25.245-121.71 63.525l79.043 0.475v42.666h-149.333v-149.333h42.666v71.466c35.482-43.655 89.177-71.32 149.333-71.32 105.988 0 191.917 85.878 192 191.846l-42.666 0.008c0-82.475-66.859-149.333-149.334-149.333z" />
</font>
</defs>
</svg>
